<?xml version="1.0" encoding="UTF-8"?>
<svg xmlns="http://www.w3.org/2000/svg" xmlns:xlink="http://www.w3.org/1999/xlink" width="504pt" height="360pt" viewBox="0 0 504 360" version="1.1">
<defs>
<clipPath id="clip1">
  <path d="M 72 0 L 432 0 L 432 360 L 72 360 Z M 72 0 "/>
</clipPath>
<clipPath id="clip2">
  <path d="M 80.21875 5.480469 L 426.519531 5.480469 L 426.519531 351.78125 L 80.21875 351.78125 Z M 80.21875 5.480469 "/>
</clipPath>
</defs>
<g id="surface43">
<rect x="0" y="0" width="504" height="360" style="fill:rgb(100%,100%,100%);fill-opacity:1;stroke:none;"/>
<path style=" stroke:none;fill-rule:nonzero;fill:rgb(100%,100%,100%);fill-opacity:1;" d="M 72 360 L 432 360 L 432 0 L 72 0 Z M 72 360 "/>
<g clip-path="url(#clip1)" clip-rule="nonzero">
<path style="fill:none;stroke-width:1.066978;stroke-linecap:round;stroke-linejoin:round;stroke:rgb(100%,100%,100%);stroke-opacity:1;stroke-miterlimit:10;" d="M 72 360 L 432 360 L 432 0 L 72 0 Z M 72 360 "/>
</g>
<g clip-path="url(#clip2)" clip-rule="nonzero">
<path style="fill-rule:nonzero;fill:rgb(100%,100%,100%);fill-opacity:1;stroke-width:1.066978;stroke-linecap:round;stroke-linejoin:round;stroke:rgb(100%,100%,100%);stroke-opacity:1;stroke-miterlimit:10;" d="M 80.21875 351.78125 L 426.519531 351.78125 L 426.519531 5.480469 L 80.21875 5.480469 Z M 80.21875 351.78125 "/>
</g>
<path style="fill:none;stroke-width:1.066978;stroke-linecap:round;stroke-linejoin:round;stroke:rgb(0%,0%,100%);stroke-opacity:1;stroke-miterlimit:10;" d="M 277.382812 140.792969 L 280.023438 136.628906 L 282.667969 132.464844 L 285.308594 128.300781 L 287.953125 124.136719 L 290.59375 119.972656 L 295.882812 111.644531 L 298.523438 107.480469 L 301.167969 103.316406 L 303.808594 99.152344 L 306.453125 94.988281 L 309.09375 90.824219 L 311.738281 86.660156 L 314.378906 82.496094 L 317.023438 78.328125 L 319.664062 74.164062 L 322.308594 70 L 324.949219 65.835938 L 327.59375 61.671875 "/>
<path style="fill:none;stroke-width:1.066978;stroke-linecap:round;stroke-linejoin:round;stroke:rgb(0%,0%,100%);stroke-opacity:1;stroke-miterlimit:10;" d="M 267.21875 136.007812 L 268.675781 131.519531 L 271.597656 122.535156 L 273.054688 118.042969 L 275.976562 109.058594 L 277.433594 104.566406 L 280.355469 95.582031 L 281.8125 91.089844 L 283.273438 86.597656 L 284.730469 82.105469 L 286.191406 77.617188 L 287.652344 73.125 L 289.109375 68.632812 L 290.570312 64.140625 "/>
<path style="fill:none;stroke-width:1.066978;stroke-linecap:round;stroke-linejoin:round;stroke:rgb(0%,0%,100%);stroke-opacity:1;stroke-miterlimit:10;" d="M 248.105469 151.03125 L 247.183594 146.203125 L 246.261719 141.371094 L 245.339844 136.542969 L 244.417969 131.710938 L 243.5 126.882812 L 242.578125 122.050781 L 241.65625 117.222656 L 240.734375 112.390625 L 239.8125 107.5625 L 238.890625 102.730469 L 237.96875 97.902344 L 237.046875 93.070312 L 236.128906 88.242188 L 235.207031 83.410156 L 234.285156 78.582031 L 233.363281 73.75 "/>
<path style="fill:none;stroke-width:1.066978;stroke-linecap:round;stroke-linejoin:round;stroke:rgb(0%,0%,100%);stroke-opacity:1;stroke-miterlimit:10;" d="M 241.40625 153.207031 L 239.304688 148.742188 L 235.101562 139.804688 L 232.996094 135.335938 L 228.792969 126.398438 L 226.691406 121.933594 L 224.585938 117.464844 L 218.28125 104.058594 L 216.175781 99.589844 L 214.074219 95.125 L 209.871094 86.1875 L 207.765625 81.71875 "/>
<path style="fill:none;stroke-width:1.066978;stroke-linecap:round;stroke-linejoin:round;stroke:rgb(0%,0%,100%);stroke-opacity:1;stroke-miterlimit:10;" d="M 254.558594 159.730469 L 254.882812 154.589844 L 255.207031 149.453125 L 255.527344 144.3125 L 256.5 128.890625 L 256.824219 123.753906 L 257.144531 118.613281 L 257.792969 108.332031 "/>
<path style="fill:none;stroke-width:1.066978;stroke-linecap:round;stroke-linejoin:round;stroke:rgb(0%,0%,100%);stroke-opacity:1;stroke-miterlimit:10;" d="M 271.652344 168.578125 L 275.976562 166.203125 L 280.300781 163.824219 L 284.621094 161.449219 L 288.945312 159.070312 L 293.269531 156.695312 L 297.59375 154.316406 L 301.917969 151.941406 L 306.238281 149.566406 L 310.5625 147.1875 L 314.886719 144.8125 L 319.210938 142.433594 "/>
<path style="fill:none;stroke-width:1.066978;stroke-linecap:round;stroke-linejoin:round;stroke:rgb(0%,0%,100%);stroke-opacity:1;stroke-miterlimit:10;" d="M 268.578125 164.347656 L 272.144531 161 L 275.707031 157.652344 L 279.269531 154.308594 L 282.835938 150.960938 L 286.398438 147.613281 L 289.964844 144.265625 L 293.527344 140.917969 L 297.089844 137.574219 L 300.65625 134.226562 L 304.21875 130.878906 L 307.785156 127.53125 L 311.347656 124.183594 L 314.910156 120.839844 L 318.476562 117.492188 L 322.039062 114.144531 L 325.605469 110.796875 "/>
<path style="fill:none;stroke-width:1.066978;stroke-linecap:round;stroke-linejoin:round;stroke:rgb(0%,0%,100%);stroke-opacity:1;stroke-miterlimit:10;" d="M 263.085938 176.136719 L 267.75 174.9375 L 272.414062 173.742188 L 277.078125 172.542969 L 281.742188 171.347656 L 286.402344 170.148438 L 291.066406 168.949219 L 295.730469 167.753906 L 300.394531 166.554688 L 305.058594 165.359375 L 309.71875 164.160156 L 314.382812 162.964844 L 319.046875 161.765625 L 323.710938 160.570312 L 328.371094 159.371094 L 333.035156 158.175781 "/>
<path style="fill:none;stroke-width:1.066978;stroke-linecap:round;stroke-linejoin:round;stroke:rgb(0%,0%,100%);stroke-opacity:1;stroke-miterlimit:10;" d="M 231.308594 162.601562 L 219.613281 154.105469 L 215.71875 151.273438 L 192.328125 134.28125 "/>
<path style="fill:none;stroke-width:1.066978;stroke-linecap:round;stroke-linejoin:round;stroke:rgb(0%,0%,100%);stroke-opacity:1;stroke-miterlimit:10;" d="M 228.015625 168.589844 L 205.867188 159.820312 L 201.433594 158.066406 L 170.425781 145.789062 "/>
<path style="fill:none;stroke-width:1.066978;stroke-linecap:round;stroke-linejoin:round;stroke:rgb(0%,0%,100%);stroke-opacity:1;stroke-miterlimit:10;" d="M 244.730469 168.1875 L 241.566406 164.359375 L 238.402344 160.535156 L 235.234375 156.710938 L 232.070312 152.882812 L 222.578125 141.410156 L 219.414062 137.582031 L 216.25 133.757812 L 213.082031 129.933594 L 209.917969 126.105469 L 200.425781 114.632812 L 197.261719 110.804688 "/>
<path style="fill:none;stroke-width:1.066978;stroke-linecap:round;stroke-linejoin:round;stroke:rgb(0%,0%,100%);stroke-opacity:1;stroke-miterlimit:10;" d="M 242.679688 234.675781 L 241.484375 240.933594 L 240.292969 247.191406 "/>
<path style="fill:none;stroke-width:1.066978;stroke-linecap:round;stroke-linejoin:round;stroke:rgb(0%,0%,100%);stroke-opacity:1;stroke-miterlimit:10;" d="M 306.683594 228.695312 L 310.515625 232.296875 "/>
<path style="fill:none;stroke-width:1.066978;stroke-linecap:round;stroke-linejoin:round;stroke:rgb(0%,0%,100%);stroke-opacity:1;stroke-miterlimit:10;" d="M 320.15625 215.347656 L 323.503906 217.1875 "/>
<path style="fill:none;stroke-width:1.066978;stroke-linecap:round;stroke-linejoin:round;stroke:rgb(0%,0%,100%);stroke-opacity:1;stroke-miterlimit:10;" d="M 329.71875 198.234375 L 333.277344 199.148438 "/>
<path style="fill:none;stroke-width:1.066978;stroke-linecap:round;stroke-linejoin:round;stroke:rgb(0%,0%,100%);stroke-opacity:1;stroke-miterlimit:10;" d="M 332.195312 178.628906 L 333.1875 178.628906 "/>
<path style="fill:none;stroke-width:1.066978;stroke-linecap:round;stroke-linejoin:round;stroke:rgb(0%,0%,100%);stroke-opacity:1;stroke-miterlimit:10;" d="M 278.195312 255.027344 L 278.453125 255.824219 "/>
<path style="fill:none;stroke-width:1.066978;stroke-linecap:round;stroke-linejoin:round;stroke:rgb(0%,0%,100%);stroke-opacity:1;stroke-miterlimit:10;" d="M 296.414062 246.457031 L 296.804688 247.070312 "/>
<path style="fill:none;stroke-width:1.066978;stroke-linecap:round;stroke-linejoin:round;stroke:rgb(0%,0%,100%);stroke-opacity:1;stroke-miterlimit:10;" d="M 257.308594 241.238281 L 257.683594 247.1875 L 258.058594 253.132812 "/>
<path style="fill:none;stroke-width:1.066978;stroke-linecap:round;stroke-linejoin:round;stroke:rgb(0%,0%,100%);stroke-opacity:1;stroke-miterlimit:10;" d="M 248.785156 188.375 L 246.6875 192.828125 L 244.59375 197.28125 L 242.496094 201.734375 L 240.402344 206.1875 L 238.304688 210.640625 L 234.117188 219.546875 L 232.019531 224 L 229.925781 228.453125 L 227.828125 232.90625 "/>
<path style="fill:none;stroke-width:1.066978;stroke-linecap:round;stroke-linejoin:round;stroke:rgb(0%,0%,100%);stroke-opacity:1;stroke-miterlimit:10;" d="M 224.003906 174.921875 L 219.199219 174.3125 L 214.394531 173.707031 L 209.59375 173.101562 L 204.789062 172.492188 L 199.988281 171.886719 L 195.183594 171.28125 L 190.378906 170.671875 L 185.578125 170.066406 L 180.773438 169.460938 L 175.972656 168.851562 L 171.167969 168.246094 "/>
<path style="fill:none;stroke-width:1.066978;stroke-linecap:round;stroke-linejoin:round;stroke:rgb(0%,0%,100%);stroke-opacity:1;stroke-miterlimit:10;" d="M 184.71875 187.304688 L 179.011719 188.023438 L 173.304688 188.746094 L 167.59375 189.464844 L 161.886719 190.1875 "/>
<path style="fill:none;stroke-width:1.066978;stroke-linecap:round;stroke-linejoin:round;stroke:rgb(0%,0%,100%);stroke-opacity:1;stroke-miterlimit:10;" d="M 183.875 206.144531 L 178.59375 208.234375 L 173.3125 210.328125 L 168.03125 212.417969 "/>
<path style="fill:none;stroke-width:1.066978;stroke-linecap:round;stroke-linejoin:round;stroke:rgb(0%,0%,100%);stroke-opacity:1;stroke-miterlimit:10;" d="M 187.835938 226.246094 L 178.609375 232.949219 L 173.996094 236.296875 "/>
<path style="fill:none;stroke-width:1.066978;stroke-linecap:round;stroke-linejoin:round;stroke:rgb(0%,0%,100%);stroke-opacity:1;stroke-miterlimit:10;" d="M 201.734375 241.046875 L 198.03125 245.523438 L 194.324219 250.003906 "/>
<path style="fill:none;stroke-width:1.066978;stroke-linecap:round;stroke-linejoin:round;stroke:rgb(0%,0%,100%);stroke-opacity:1;stroke-miterlimit:10;" d="M 253.371094 178.628906 L 253.371094 178.628906 "/>
<path style="fill:none;stroke-width:1.066978;stroke-linecap:round;stroke-linejoin:round;stroke:rgb(0%,0%,100%);stroke-opacity:1;stroke-miterlimit:10;" d="M 253.371094 178.628906 L 254.566406 177.039062 "/>
<path style="fill:none;stroke-width:1.066978;stroke-linecap:round;stroke-linejoin:round;stroke:rgb(0%,0%,100%);stroke-opacity:1;stroke-miterlimit:10;" d="M 253.679688 176.664062 L 254.570312 171.039062 L 255.464844 165.414062 "/>
<path style="fill:none;stroke-width:1.066978;stroke-linecap:round;stroke-linejoin:round;stroke:rgb(0%,0%,100%);stroke-opacity:1;stroke-miterlimit:10;" d="M 259.066406 166.523438 L 261.296875 161.78125 L 263.527344 157.042969 L 265.757812 152.300781 L 267.988281 147.5625 L 270.21875 142.820312 L 272.449219 138.082031 "/>
<path style="fill:none;stroke-width:1.066978;stroke-linecap:round;stroke-linejoin:round;stroke:rgb(0%,0%,100%);stroke-opacity:1;stroke-miterlimit:10;" d="M 251.691406 165.355469 L 250.996094 159.84375 "/>
<path style="fill:none;stroke-width:1.066978;stroke-linecap:round;stroke-linejoin:round;stroke:rgb(0%,0%,100%);stroke-opacity:1;stroke-miterlimit:10;" d="M 247.519531 160.621094 L 244.6875 151.910156 "/>
<path style="fill:none;stroke-width:1.066978;stroke-linecap:round;stroke-linejoin:round;stroke:rgb(0%,0%,100%);stroke-opacity:1;stroke-miterlimit:10;" d="M 255.171875 177.78125 L 262.449219 174.359375 "/>
<path style="fill:none;stroke-width:1.066978;stroke-linecap:round;stroke-linejoin:round;stroke:rgb(0%,0%,100%);stroke-opacity:1;stroke-miterlimit:10;" d="M 261.488281 172.734375 L 265.867188 169.550781 L 270.25 166.367188 "/>
<path style="fill:none;stroke-width:1.066978;stroke-linecap:round;stroke-linejoin:round;stroke:rgb(0%,0%,100%);stroke-opacity:1;stroke-miterlimit:10;" d="M 253.371094 178.628906 L 251.378906 178.695312 "/>
<path style="fill:none;stroke-width:1.066978;stroke-linecap:round;stroke-linejoin:round;stroke:rgb(0%,0%,100%);stroke-opacity:1;stroke-miterlimit:10;" d="M 251.835938 177.359375 L 247.378906 173.675781 L 242.925781 169.988281 "/>
<path style="fill:none;stroke-width:1.066978;stroke-linecap:round;stroke-linejoin:round;stroke:rgb(0%,0%,100%);stroke-opacity:1;stroke-miterlimit:10;" d="M 241.492188 172.101562 L 235.484375 168.796875 L 229.472656 165.492188 "/>
<path style="fill:none;stroke-width:1.066978;stroke-linecap:round;stroke-linejoin:round;stroke:rgb(0%,0%,100%);stroke-opacity:1;stroke-miterlimit:10;" d="M 251.921875 179.996094 L 248.859375 182.890625 "/>
<path style="fill:none;stroke-width:1.066978;stroke-linecap:round;stroke-linejoin:round;stroke:rgb(0%,0%,100%);stroke-opacity:1;stroke-miterlimit:10;" d="M 252.339844 184.75 L 251.582031 189.25 "/>
<path style="fill:none;stroke-width:1.066978;stroke-linecap:round;stroke-linejoin:round;stroke:rgb(0%,0%,100%);stroke-opacity:1;stroke-miterlimit:10;" d="M 254.507812 189.339844 L 255.054688 194.453125 L 255.597656 199.570312 L 256.140625 204.683594 L 256.6875 209.796875 L 257.773438 220.023438 L 258.320312 225.136719 L 258.863281 230.253906 L 259.40625 235.367188 "/>
<path style="fill:none;stroke-width:1.066978;stroke-linecap:round;stroke-linejoin:round;stroke:rgb(0%,0%,100%);stroke-opacity:1;stroke-miterlimit:10;" d="M 275.617188 231.171875 L 277.832031 236.394531 "/>
<path style="fill:none;stroke-width:1.066978;stroke-linecap:round;stroke-linejoin:round;stroke:rgb(0%,0%,100%);stroke-opacity:1;stroke-miterlimit:10;" d="M 295.589844 225.027344 L 299.640625 229.484375 "/>
<path style="fill:none;stroke-width:1.066978;stroke-linecap:round;stroke-linejoin:round;stroke:rgb(0%,0%,100%);stroke-opacity:1;stroke-miterlimit:10;" d="M 312.550781 213.628906 L 316.324219 215.859375 "/>
<path style="fill:none;stroke-width:1.066978;stroke-linecap:round;stroke-linejoin:round;stroke:rgb(0%,0%,100%);stroke-opacity:1;stroke-miterlimit:10;" d="M 322.929688 201.230469 L 325.851562 202.179688 "/>
<path style="fill:none;stroke-width:1.066978;stroke-linecap:round;stroke-linejoin:round;stroke:rgb(0%,0%,100%);stroke-opacity:1;stroke-miterlimit:10;" d="M 328.980469 188.183594 L 331.574219 188.507812 "/>
<path style="fill:none;stroke-width:1.066978;stroke-linecap:round;stroke-linejoin:round;stroke:rgb(0%,0%,100%);stroke-opacity:1;stroke-miterlimit:10;" d="M 282.644531 240.839844 L 287.574219 251.316406 "/>
<path style="fill:none;stroke-width:1.066978;stroke-linecap:round;stroke-linejoin:round;stroke:rgb(0%,0%,100%);stroke-opacity:1;stroke-miterlimit:10;" d="M 247.203125 179.3125 L 241.386719 179.953125 L 235.574219 180.59375 L 229.761719 181.238281 L 223.949219 181.878906 "/>
<path style="fill:none;stroke-width:1.066978;stroke-linecap:round;stroke-linejoin:round;stroke:rgb(0%,0%,100%);stroke-opacity:1;stroke-miterlimit:10;" d="M 225.519531 188.65625 L 220.863281 190.332031 L 216.207031 192.011719 L 211.546875 193.6875 L 197.578125 198.714844 L 192.921875 200.394531 L 188.265625 202.070312 "/>
<path style="fill:none;stroke-width:1.066978;stroke-linecap:round;stroke-linejoin:round;stroke:rgb(0%,0%,100%);stroke-opacity:1;stroke-miterlimit:10;" d="M 194.945312 215.707031 L 190.261719 218.679688 "/>
<path style="fill:none;stroke-width:1.066978;stroke-linecap:round;stroke-linejoin:round;stroke:rgb(0%,0%,100%);stroke-opacity:1;stroke-miterlimit:10;" d="M 198.886719 229.792969 L 194.320312 234.082031 "/>
<path style="fill:none;stroke-width:1.066978;stroke-linecap:round;stroke-linejoin:round;stroke:rgb(0%,0%,100%);stroke-opacity:1;stroke-miterlimit:10;" d="M 272.449219 138.082031 L 277.382812 140.792969 "/>
<path style="fill:none;stroke-width:1.066978;stroke-linecap:round;stroke-linejoin:round;stroke:rgb(0%,0%,100%);stroke-opacity:1;stroke-miterlimit:10;" d="M 272.449219 138.082031 L 267.21875 136.007812 "/>
<path style="fill:none;stroke-width:1.066978;stroke-linecap:round;stroke-linejoin:round;stroke:rgb(0%,0%,100%);stroke-opacity:1;stroke-miterlimit:10;" d="M 244.6875 151.910156 L 248.105469 151.03125 "/>
<path style="fill:none;stroke-width:1.066978;stroke-linecap:round;stroke-linejoin:round;stroke:rgb(0%,0%,100%);stroke-opacity:1;stroke-miterlimit:10;" d="M 244.6875 151.910156 L 241.40625 153.207031 "/>
<path style="fill:none;stroke-width:1.066978;stroke-linecap:round;stroke-linejoin:round;stroke:rgb(0%,0%,100%);stroke-opacity:1;stroke-miterlimit:10;" d="M 250.996094 159.84375 L 254.558594 159.730469 "/>
<path style="fill:none;stroke-width:1.066978;stroke-linecap:round;stroke-linejoin:round;stroke:rgb(0%,0%,100%);stroke-opacity:1;stroke-miterlimit:10;" d="M 270.25 166.367188 L 271.652344 168.578125 "/>
<path style="fill:none;stroke-width:1.066978;stroke-linecap:round;stroke-linejoin:round;stroke:rgb(0%,0%,100%);stroke-opacity:1;stroke-miterlimit:10;" d="M 270.25 166.367188 L 268.578125 164.347656 "/>
<path style="fill:none;stroke-width:1.066978;stroke-linecap:round;stroke-linejoin:round;stroke:rgb(0%,0%,100%);stroke-opacity:1;stroke-miterlimit:10;" d="M 262.449219 174.359375 L 263.085938 176.136719 "/>
<path style="fill:none;stroke-width:1.066978;stroke-linecap:round;stroke-linejoin:round;stroke:rgb(0%,0%,100%);stroke-opacity:1;stroke-miterlimit:10;" d="M 229.472656 165.492188 L 231.308594 162.601562 "/>
<path style="fill:none;stroke-width:1.066978;stroke-linecap:round;stroke-linejoin:round;stroke:rgb(0%,0%,100%);stroke-opacity:1;stroke-miterlimit:10;" d="M 229.472656 165.492188 L 228.015625 168.589844 "/>
<path style="fill:none;stroke-width:1.066978;stroke-linecap:round;stroke-linejoin:round;stroke:rgb(0%,0%,100%);stroke-opacity:1;stroke-miterlimit:10;" d="M 242.925781 169.988281 L 244.730469 168.1875 "/>
<path style="fill:none;stroke-width:1.066978;stroke-linecap:round;stroke-linejoin:round;stroke:rgb(0%,0%,100%);stroke-opacity:1;stroke-miterlimit:10;" d="M 259.40625 235.367188 L 253.816406 235.683594 L 248.222656 235.453125 L 242.679688 234.675781 "/>
<path style="fill:none;stroke-width:1.066978;stroke-linecap:round;stroke-linejoin:round;stroke:rgb(0%,0%,100%);stroke-opacity:1;stroke-miterlimit:10;" d="M 316.324219 215.859375 L 313.425781 220.371094 L 310.210938 224.65625 L 306.683594 228.695312 "/>
<path style="fill:none;stroke-width:1.066978;stroke-linecap:round;stroke-linejoin:round;stroke:rgb(0%,0%,100%);stroke-opacity:1;stroke-miterlimit:10;" d="M 325.851562 202.179688 L 324.230469 206.6875 L 322.328125 211.078125 L 320.15625 215.347656 "/>
<path style="fill:none;stroke-width:1.066978;stroke-linecap:round;stroke-linejoin:round;stroke:rgb(0%,0%,100%);stroke-opacity:1;stroke-miterlimit:10;" d="M 331.574219 188.507812 L 330.796875 193.398438 L 329.71875 198.234375 "/>
<path style="fill:none;stroke-width:1.066978;stroke-linecap:round;stroke-linejoin:round;stroke:rgb(0%,0%,100%);stroke-opacity:1;stroke-miterlimit:10;" d="M 331.574219 188.507812 L 332.039062 183.578125 L 332.195312 178.628906 "/>
<path style="fill:none;stroke-width:1.066978;stroke-linecap:round;stroke-linejoin:round;stroke:rgb(0%,0%,100%);stroke-opacity:1;stroke-miterlimit:10;" d="M 287.574219 251.316406 L 282.941406 253.320312 L 278.195312 255.027344 "/>
<path style="fill:none;stroke-width:1.066978;stroke-linecap:round;stroke-linejoin:round;stroke:rgb(0%,0%,100%);stroke-opacity:1;stroke-miterlimit:10;" d="M 287.574219 251.316406 L 292.070312 249.023438 L 296.414062 246.457031 "/>
<path style="fill:none;stroke-width:1.066978;stroke-linecap:round;stroke-linejoin:round;stroke:rgb(0%,0%,100%);stroke-opacity:1;stroke-miterlimit:10;" d="M 277.832031 236.394531 L 272.871094 238.253906 L 267.773438 239.683594 L 262.574219 240.683594 L 257.308594 241.238281 "/>
<path style="fill:none;stroke-width:1.066978;stroke-linecap:round;stroke-linejoin:round;stroke:rgb(0%,0%,100%);stroke-opacity:1;stroke-miterlimit:10;" d="M 251.582031 189.25 L 248.785156 188.375 "/>
<path style="fill:none;stroke-width:1.066978;stroke-linecap:round;stroke-linejoin:round;stroke:rgb(0%,0%,100%);stroke-opacity:1;stroke-miterlimit:10;" d="M 223.949219 181.878906 L 224.003906 174.921875 "/>
<path style="fill:none;stroke-width:1.066978;stroke-linecap:round;stroke-linejoin:round;stroke:rgb(0%,0%,100%);stroke-opacity:1;stroke-miterlimit:10;" d="M 188.265625 202.070312 L 186.722656 197.238281 L 185.539062 192.308594 L 184.71875 187.304688 "/>
<path style="fill:none;stroke-width:1.066978;stroke-linecap:round;stroke-linejoin:round;stroke:rgb(0%,0%,100%);stroke-opacity:1;stroke-miterlimit:10;" d="M 190.261719 218.679688 L 187.871094 214.636719 L 185.742188 210.453125 L 183.875 206.144531 "/>
<path style="fill:none;stroke-width:1.066978;stroke-linecap:round;stroke-linejoin:round;stroke:rgb(0%,0%,100%);stroke-opacity:1;stroke-miterlimit:10;" d="M 194.320312 234.082031 L 190.953125 230.265625 L 187.835938 226.246094 "/>
<path style="fill:none;stroke-width:1.066978;stroke-linecap:round;stroke-linejoin:round;stroke:rgb(0%,0%,100%);stroke-opacity:1;stroke-miterlimit:10;" d="M 194.320312 234.082031 L 197.917969 237.679688 L 201.734375 241.046875 "/>
<path style="fill:none;stroke-width:1.066978;stroke-linecap:round;stroke-linejoin:round;stroke:rgb(0%,0%,100%);stroke-opacity:1;stroke-miterlimit:10;" d="M 253.371094 178.628906 L 253.371094 178.628906 "/>
<path style="fill:none;stroke-width:1.066978;stroke-linecap:round;stroke-linejoin:round;stroke:rgb(0%,0%,100%);stroke-opacity:1;stroke-miterlimit:10;" d="M 253.371094 178.628906 L 253.371094 178.628906 "/>
<path style="fill:none;stroke-width:1.066978;stroke-linecap:round;stroke-linejoin:round;stroke:rgb(0%,0%,100%);stroke-opacity:1;stroke-miterlimit:10;" d="M 254.566406 177.039062 L 253.679688 176.664062 "/>
<path style="fill:none;stroke-width:1.066978;stroke-linecap:round;stroke-linejoin:round;stroke:rgb(0%,0%,100%);stroke-opacity:1;stroke-miterlimit:10;" d="M 255.464844 165.414062 L 259.066406 166.523438 "/>
<path style="fill:none;stroke-width:1.066978;stroke-linecap:round;stroke-linejoin:round;stroke:rgb(0%,0%,100%);stroke-opacity:1;stroke-miterlimit:10;" d="M 255.464844 165.414062 L 251.691406 165.355469 "/>
<path style="fill:none;stroke-width:1.066978;stroke-linecap:round;stroke-linejoin:round;stroke:rgb(0%,0%,100%);stroke-opacity:1;stroke-miterlimit:10;" d="M 250.996094 159.84375 L 247.519531 160.621094 "/>
<path style="fill:none;stroke-width:1.066978;stroke-linecap:round;stroke-linejoin:round;stroke:rgb(0%,0%,100%);stroke-opacity:1;stroke-miterlimit:10;" d="M 254.566406 177.039062 L 255.171875 177.78125 "/>
<path style="fill:none;stroke-width:1.066978;stroke-linecap:round;stroke-linejoin:round;stroke:rgb(0%,0%,100%);stroke-opacity:1;stroke-miterlimit:10;" d="M 262.449219 174.359375 L 261.488281 172.734375 "/>
<path style="fill:none;stroke-width:1.066978;stroke-linecap:round;stroke-linejoin:round;stroke:rgb(0%,0%,100%);stroke-opacity:1;stroke-miterlimit:10;" d="M 253.371094 178.628906 L 253.371094 178.628906 "/>
<path style="fill:none;stroke-width:1.066978;stroke-linecap:round;stroke-linejoin:round;stroke:rgb(0%,0%,100%);stroke-opacity:1;stroke-miterlimit:10;" d="M 251.378906 178.695312 L 251.835938 177.359375 "/>
<path style="fill:none;stroke-width:1.066978;stroke-linecap:round;stroke-linejoin:round;stroke:rgb(0%,0%,100%);stroke-opacity:1;stroke-miterlimit:10;" d="M 242.925781 169.988281 L 241.492188 172.101562 "/>
<path style="fill:none;stroke-width:1.066978;stroke-linecap:round;stroke-linejoin:round;stroke:rgb(0%,0%,100%);stroke-opacity:1;stroke-miterlimit:10;" d="M 251.378906 178.695312 L 251.921875 179.996094 "/>
<path style="fill:none;stroke-width:1.066978;stroke-linecap:round;stroke-linejoin:round;stroke:rgb(0%,0%,100%);stroke-opacity:1;stroke-miterlimit:10;" d="M 248.859375 182.890625 L 252.339844 184.75 "/>
<path style="fill:none;stroke-width:1.066978;stroke-linecap:round;stroke-linejoin:round;stroke:rgb(0%,0%,100%);stroke-opacity:1;stroke-miterlimit:10;" d="M 251.582031 189.25 L 254.507812 189.339844 "/>
<path style="fill:none;stroke-width:1.066978;stroke-linecap:round;stroke-linejoin:round;stroke:rgb(0%,0%,100%);stroke-opacity:1;stroke-miterlimit:10;" d="M 259.40625 235.367188 L 264.941406 234.5 L 270.359375 233.097656 L 275.617188 231.171875 "/>
<path style="fill:none;stroke-width:1.066978;stroke-linecap:round;stroke-linejoin:round;stroke:rgb(0%,0%,100%);stroke-opacity:1;stroke-miterlimit:10;" d="M 277.832031 236.394531 L 282.613281 234.128906 L 287.191406 231.464844 L 291.527344 228.421875 L 295.589844 225.027344 "/>
<path style="fill:none;stroke-width:1.066978;stroke-linecap:round;stroke-linejoin:round;stroke:rgb(0%,0%,100%);stroke-opacity:1;stroke-miterlimit:10;" d="M 299.640625 229.484375 L 303.304688 225.890625 L 306.6875 222.039062 L 309.777344 217.941406 L 312.550781 213.628906 "/>
<path style="fill:none;stroke-width:1.066978;stroke-linecap:round;stroke-linejoin:round;stroke:rgb(0%,0%,100%);stroke-opacity:1;stroke-miterlimit:10;" d="M 316.324219 215.859375 L 318.878906 211.148438 L 321.085938 206.265625 L 322.929688 201.230469 "/>
<path style="fill:none;stroke-width:1.066978;stroke-linecap:round;stroke-linejoin:round;stroke:rgb(0%,0%,100%);stroke-opacity:1;stroke-miterlimit:10;" d="M 325.851562 202.179688 L 327.1875 197.582031 L 328.230469 192.910156 L 328.980469 188.183594 "/>
<path style="fill:none;stroke-width:1.066978;stroke-linecap:round;stroke-linejoin:round;stroke:rgb(0%,0%,100%);stroke-opacity:1;stroke-miterlimit:10;" d="M 299.640625 229.484375 L 295.722656 232.789062 L 291.566406 235.796875 L 287.199219 238.484375 L 282.644531 240.839844 "/>
<path style="fill:none;stroke-width:1.066978;stroke-linecap:round;stroke-linejoin:round;stroke:rgb(0%,0%,100%);stroke-opacity:1;stroke-miterlimit:10;" d="M 248.859375 182.890625 L 247.203125 179.3125 "/>
<path style="fill:none;stroke-width:1.066978;stroke-linecap:round;stroke-linejoin:round;stroke:rgb(0%,0%,100%);stroke-opacity:1;stroke-miterlimit:10;" d="M 223.949219 181.878906 L 225.519531 188.65625 "/>
<path style="fill:none;stroke-width:1.066978;stroke-linecap:round;stroke-linejoin:round;stroke:rgb(0%,0%,100%);stroke-opacity:1;stroke-miterlimit:10;" d="M 188.265625 202.070312 L 190.15625 206.773438 L 192.386719 211.328125 L 194.945312 215.707031 "/>
<path style="fill:none;stroke-width:1.066978;stroke-linecap:round;stroke-linejoin:round;stroke:rgb(0%,0%,100%);stroke-opacity:1;stroke-miterlimit:10;" d="M 190.261719 218.679688 L 192.902344 222.5625 L 195.78125 226.273438 L 198.886719 229.792969 "/>
</g>
</svg>
